# 3ds Max Wavefront OBJ Exporter v0.97b - (c)2007 guruware
# File Created: 30.05.2019 19:35:19

#
# object Hedra001
#

v  0.0000 4.3729 -0.0000
v  3.0921 2.1865 2.1865
v  3.0921 2.1865 -2.1865
v  3.0921 -2.1865 -2.1865
v  0.0000 0.0000 -4.3729
v  -3.0921 -2.1865 -2.1865
v  -3.0921 2.1865 -2.1865
v  -3.0921 2.1865 2.1865
v  -3.0921 -2.1865 2.1865
v  -0.0000 0.0000 4.3729
v  3.0921 -2.1865 2.1865
v  0.0000 -4.3729 0.0000
# 12 vertices

vn 0.5774 0.8165 -0.0000
vn 0.5774 0.0000 -0.8165
vn -0.5774 0.0000 -0.8165
vn -0.5774 0.8165 -0.0000
vn -0.5774 0.0000 0.8165
vn 0.5774 0.0000 0.8165
vn 0.5774 -0.8165 -0.0000
vn -0.5774 -0.8165 -0.0000
vn 0.0000 0.7071 -0.7071
vn 0.0000 0.7071 0.7071
vn 1.0000 0.0000 -0.0000
vn 0.0000 -0.7071 0.7071
vn 0.0000 -0.7071 -0.7071
vn -1.0000 0.0000 -0.0000
# 14 vertex normals

vt 0.2084 0.5952 0.0000
vt 0.4159 0.4485 0.0000
vt 0.4159 0.7419 0.0000
vt 0.0010 0.4410 0.0000
vt 0.0010 0.1477 0.0000
vt 0.2084 0.2944 0.0000
vt 0.4159 0.1477 0.0000
vt 0.4159 0.4410 0.0000
vt 0.2084 0.5877 0.0000
vt 0.0010 0.7419 0.0000
vt 0.0010 0.4485 0.0000
vt 0.9920 0.7419 0.0000
vt 0.5771 0.4410 0.0000
vt 0.5771 0.1477 0.0000
vt 0.7845 0.2944 0.0000
vt 0.9920 0.1477 0.0000
vt 0.9920 0.4410 0.0000
vt 0.7845 0.5877 0.0000
vt 0.7845 0.5952 0.0000
vt 0.9920 0.4485 0.0000
vt 0.5771 0.7419 0.0000
vt 0.5771 0.4485 0.0000
vt 0.2084 0.0010 0.0000
vt 0.7845 0.0010 0.0000
vt 0.6342 0.9990 0.0000
vt 0.6342 0.7056 0.0000
vt 0.9276 0.7056 0.0000
vt 0.9276 0.9990 0.0000
vt 0.3515 0.7056 0.0000
vt 0.3515 0.9990 0.0000
vt 0.0581 0.9990 0.0000
vt 0.0581 0.7056 0.0000
# 32 texture coords

o Hedra001
g Hedra001
s off
f -12/-32/-14 -11/-31/-14 -10/-30/-14 
f -10/-29/-13 -9/-28/-13 -8/-27/-13 
f -8/-27/-12 -7/-26/-12 -6/-25/-12 
f -6/-23/-11 -5/-22/-11 -12/-32/-11 
f -5/-20/-10 -4/-19/-10 -3/-18/-10 
f -3/-18/-9 -2/-17/-9 -11/-16/-9 
f -2/-21/-8 -1/-14/-8 -9/-13/-8 
f -4/-12/-7 -7/-11/-7 -1/-14/-7 
f -6/-25/-6 -12/-24/-6 -10/-29/-6 
f -10/-29/-6 -8/-27/-6 -6/-25/-6 
f -11/-16/-5 -12/-15/-5 -5/-20/-5 
f -5/-20/-5 -3/-18/-5 -11/-16/-5 
f -9/-6/-4 -10/-5/-4 -11/-8/-4 
f -11/-8/-4 -2/-7/-4 -9/-6/-4 
f -1/-9/-3 -2/-17/-3 -3/-18/-3 
f -3/-18/-3 -4/-19/-3 -1/-9/-3 
f -8/-27/-2 -9/-28/-2 -1/-10/-2 
f -1/-10/-2 -7/-26/-2 -8/-27/-2 
f -6/-2/-1 -7/-1/-1 -4/-4/-1 
f -4/-4/-1 -5/-3/-1 -6/-2/-1 
# 20 faces

